<?xml version="1.0" encoding="UTF-8" standalone="no"?>
<!-- Created with Inkscape (http://www.inkscape.org/) -->

<svg
   xmlns:dc="http://purl.org/dc/elements/1.1/"
   xmlns:cc="http://creativecommons.org/ns#"
   xmlns:rdf="http://www.w3.org/1999/02/22-rdf-syntax-ns#"
   xmlns:svg="http://www.w3.org/2000/svg"
   xmlns="http://www.w3.org/2000/svg"
   xmlns:sodipodi="http://sodipodi.sourceforge.net/DTD/sodipodi-0.dtd"
   xmlns:inkscape="http://www.inkscape.org/namespaces/inkscape"
   width="66.08551mm"
   height="17.868189mm"
   viewBox="0 0 66.08551 17.868189"
   version="1.1"
   id="svg8"
   inkscape:version="0.92.2 (5c3e80d, 2017-08-06)"
   sodipodi:docname="201811_Logo_singleColourReversed.svg">
  <defs
     id="defs2">
    <pattern
       y="0"
       x="0"
       height="6"
       width="6"
       patternUnits="userSpaceOnUse"
       id="EMFhbasepattern" />
  </defs>
  <sodipodi:namedview
     id="base"
     pagecolor="#ffffff"
     bordercolor="#666666"
     borderopacity="1.0"
     inkscape:pageopacity="0.0"
     inkscape:pageshadow="2"
     inkscape:zoom="5.6"
     inkscape:cx="104.69668"
     inkscape:cy="27.890941"
     inkscape:document-units="mm"
     inkscape:current-layer="layer1"
     showgrid="false"
     fit-margin-top="0"
     fit-margin-left="0"
     fit-margin-right="0"
     fit-margin-bottom="0"
     inkscape:window-width="1920"
     inkscape:window-height="1057"
     inkscape:window-x="1912"
     inkscape:window-y="-8"
     inkscape:window-maximized="1" />
  <metadata
     id="metadata5">
    <rdf:RDF>
      <cc:Work
         rdf:about="">
        <dc:format>image/svg+xml</dc:format>
        <dc:type
           rdf:resource="http://purl.org/dc/dcmitype/StillImage" />
        <dc:title></dc:title>
      </cc:Work>
    </rdf:RDF>
  </metadata>
  <g
     inkscape:label="Layer 1"
     inkscape:groupmode="layer"
     id="layer1"
     transform="translate(-13.07034,-20.458763)">
    <path
       id="path13"
       d="M 13.07034,38.326952 H 79.155851 V 20.458763 H 13.07034 Z"
       style="fill:#ed6e23;fill-opacity:1;fill-rule:evenodd;stroke:none;stroke-width:0.26458332"
       inkscape:connector-curvature="0" />
    <path
       id="path15"
       d="m 41.782466,28.435456 c -1.041731,0 -1.726298,-0.754016 -1.726298,-1.855276 0,-1.081417 0.724252,-1.865197 1.775904,-1.865197 1.002046,0 1.627087,0.704409 1.627087,1.88504 v 0.148818 h -2.36126 c 0,0.615119 0.267874,0.952441 0.724251,0.952441 0.327404,0 0.585354,-0.198425 0.674646,-0.525826 l 0.94252,0.07937 c -0.218268,0.744094 -0.813544,1.18063 -1.65685,1.18063 z m 0.664726,-2.262048 c -0.0099,-0.515905 -0.248034,-0.783779 -0.674648,-0.783779 -0.38693,0 -0.634961,0.277795 -0.664724,0.783779 z"
       style="fill:#ffffff;fill-opacity:1;fill-rule:evenodd;stroke:none;stroke-width:0.26458332"
       inkscape:connector-curvature="0" />
    <path
       id="path17"
       d="m 64.899,28.435456 c -1.04173,0 -1.726297,-0.754016 -1.726297,-1.855276 0,-1.081417 0.724251,-1.865197 1.775904,-1.865197 1.002049,0 1.627087,0.704409 1.627087,1.88504 v 0.148818 h -2.361261 c 0,0.615119 0.267875,0.952441 0.724252,0.952441 0.327404,0 0.575435,-0.198425 0.664726,-0.525826 l 0.952442,0.07937 c -0.218268,0.744094 -0.833387,1.18063 -1.656853,1.18063 z m 0.654804,-2.262048 c -0.0099,-0.515905 -0.248031,-0.783779 -0.664723,-0.783779 -0.386929,0 -0.63496,0.277795 -0.664726,0.783779 z"
       style="fill:#ffffff;fill-opacity:1;fill-rule:evenodd;stroke:none;stroke-width:0.26458332"
       inkscape:connector-curvature="0" />
    <path
       id="path19"
       d="m 43.548451,24.814196 h 1.101259 l 0.515906,2.073543 0.496062,-2.073543 h 0.912757 l 0.515906,2.103307 0.605197,-2.103307 h 0.823463 l -1.011968,3.522047 h -0.922676 l -0.585356,-2.291811 -0.575432,2.291811 H 44.57034 Z"
       style="fill:#ffffff;fill-opacity:1;fill-rule:evenodd;stroke:none;stroke-width:0.26458332"
       inkscape:connector-curvature="0" />
    <path
       id="path21"
       d="m 50.384199,25.429314 c -0.446458,0 -0.754017,0.377008 -0.763939,1.131023 -0.01984,0.754016 0.287719,1.140945 0.724252,1.140945 0.337325,0 0.654804,-0.257952 0.714333,-0.71433 l 0.873069,0.09921 c -0.109133,0.813543 -0.763937,1.349291 -1.65685,1.349291 -1.041731,0 -1.775904,-0.754016 -1.756063,-1.855276 0.01984,-1.131023 0.78378,-1.865196 1.894961,-1.865196 0.853229,0 1.42866,0.496062 1.527874,1.329448 l -0.902835,0.09921 c -0.05953,-0.4663 -0.347245,-0.714331 -0.654802,-0.714331 z"
       style="fill:#ffffff;fill-opacity:1;fill-rule:evenodd;stroke:none;stroke-width:0.26458332"
       inkscape:connector-curvature="0" />
    <path
       id="path23"
       d="m 54.521365,27.76081 c -0.238112,0.436535 -0.61512,0.664724 -1.111182,0.664724 -0.734173,0 -1.170709,-0.436535 -1.170709,-1.081417 0,-0.833386 0.754014,-1.269921 2.262047,-1.279843 v -0.148819 c 0,-0.357165 -0.198424,-0.545669 -0.565513,-0.545669 -0.40677,0 -0.644882,0.168662 -0.694486,0.496063 l -0.912757,-0.09921 c 0.15874,-0.694488 0.71433,-1.051654 1.65685,-1.051654 1.061575,0 1.468348,0.406772 1.468348,1.379055 v 1.557638 c 0,0.287717 0.02976,0.525827 0.09921,0.684567 h -0.962361 c -0.03968,-0.15874 -0.05953,-0.367087 -0.06945,-0.575433 z m -1.260002,-0.476221 c 0,0.287717 0.188505,0.456378 0.505984,0.456378 0.416695,0 0.734174,-0.347244 0.734174,-0.823464 v -0.31748 c -0.823465,0.01984 -1.240158,0.267873 -1.240158,0.684566 z"
       style="fill:#ffffff;fill-opacity:1;fill-rule:evenodd;stroke:none;stroke-width:0.26458332"
       inkscape:connector-curvature="0" />
    <path
       id="path25"
       d="m 56.654435,27.225062 c 0.08929,0.327402 0.377008,0.505984 0.813544,0.505984 0.377007,0 0.585354,-0.15874 0.585354,-0.377008 0,-0.307559 -0.287716,-0.297638 -0.823466,-0.406772 -0.833384,-0.168661 -1.240157,-0.456377 -1.240157,-1.091338 0,-0.654803 0.525827,-1.150866 1.408818,-1.150866 0.734174,0 1.220317,0.327401 1.428663,0.922677 l -0.78378,0.148819 c -0.119055,-0.277795 -0.327401,-0.39685 -0.684567,-0.39685 -0.317479,0 -0.496062,0.119055 -0.496062,0.347244 0,0.307559 0.337322,0.297638 0.982204,0.436535 0.754015,0.15874 1.131023,0.436536 1.131023,1.051654 0,0.694488 -0.585354,1.200472 -1.597322,1.200472 -0.803624,0 -1.369134,-0.406772 -1.537795,-1.071496 z"
       style="fill:#ffffff;fill-opacity:1;fill-rule:evenodd;stroke:none;stroke-width:0.26458332"
       inkscape:connector-curvature="0" />
    <path
       id="path27"
       d="m 61.724199,23.574038 h 1.021889 v 4.762205 h -1.021889 z"
       style="fill:#ffffff;fill-opacity:1;fill-rule:evenodd;stroke:none;stroke-width:0.26458332"
       inkscape:connector-curvature="0" />
    <path
       id="path29"
       d="m 41.167349,31.203487 c 0.138896,-0.23811 0.317479,-0.426614 0.505984,-0.545669 0.198424,-0.128976 0.426614,-0.188504 0.674645,-0.188504 0.208346,0 0.396851,0.03969 0.535747,0.119055 0.14882,0.09921 0.267875,0.23811 0.347244,0.416693 0.08929,0.188504 0.138899,0.396851 0.138899,0.62504 v 1.597322 c 0,0.119056 0.01984,0.198426 0.07937,0.248032 0.04961,0.04961 0.138899,0.07937 0.267875,0.07937 h 0.218268 v 0.257953 h -1.716378 v -0.257953 h 0.168661 c 0.148817,0 0.257953,-0.02976 0.317481,-0.07937 0.05953,-0.03969 0.08929,-0.119055 0.08929,-0.218268 v -1.388976 c 0,-0.307559 -0.0496,-0.535748 -0.138895,-0.674646 -0.128977,-0.208346 -0.317482,-0.31748 -0.585357,-0.31748 -0.257952,0 -0.476218,0.109134 -0.644879,0.31748 -0.178583,0.208347 -0.257953,0.486142 -0.257953,0.823465 v 1.210393 c 0,0.119056 0.01984,0.198426 0.07937,0.248032 0.04961,0.04961 0.138895,0.07937 0.267872,0.07937 h 0.218268 v 0.257953 h -1.756064 v -0.257953 h 0.22819 c 0.109136,0 0.198425,-0.02976 0.257953,-0.06945 0.05953,-0.04961 0.08929,-0.109134 0.08929,-0.178583 v -2.113228 c 0,-0.148819 -0.03968,-0.248031 -0.109133,-0.327401 -0.07937,-0.06945 -0.188505,-0.109134 -0.327403,-0.109134 h -0.168662 v -0.238111 l 1.17071,-0.04961 z"
       style="fill:#ffffff;fill-opacity:1;fill-rule:evenodd;stroke:none;stroke-width:0.26458332"
       inkscape:connector-curvature="0" />
    <path
       id="path31"
       d="m 43.994906,30.538763 1.329449,-0.04961 v 2.827559 c 0,0.07937 0.01984,0.128976 0.05953,0.168661 0.04961,0.03969 0.119055,0.06945 0.198424,0.06945 h 0.367086 v 0.257953 h -1.885037 v -0.257953 h 0.347244 c 0.109133,0 0.178581,-0.02976 0.228187,-0.07937 0.04961,-0.04961 0.06945,-0.119055 0.06945,-0.218268 v -2.063622 c 0,-0.138897 -0.02977,-0.228189 -0.109136,-0.297638 -0.06945,-0.06945 -0.188502,-0.09921 -0.337322,-0.09921 h -0.267875 z m 0.922679,-1.379055 c 0.119055,0 0.208346,0.03969 0.287716,0.119055 0.07937,0.07937 0.119054,0.178582 0.119054,0.287716 0,0.09921 -0.03968,0.188504 -0.119054,0.267874 -0.06945,0.07937 -0.168661,0.119055 -0.287716,0.119055 -0.09921,0 -0.198427,-0.03968 -0.277797,-0.119055 -0.06945,-0.07937 -0.109132,-0.168661 -0.109132,-0.277795 0,-0.09921 0.03968,-0.198425 0.119054,-0.277795 0.07937,-0.07937 0.168661,-0.119055 0.267875,-0.119055 z"
       style="fill:#ffffff;fill-opacity:1;fill-rule:evenodd;stroke:none;stroke-width:0.26458332"
       inkscape:connector-curvature="0" />
    <path
       id="path33"
       d="m 58.489869,30.538763 1.329446,-0.04961 v 2.827559 c 0,0.07937 0.01984,0.128976 0.04961,0.168661 0.05953,0.03969 0.128976,0.06945 0.208346,0.06945 h 0.367088 v 0.257953 h -1.88504 v -0.257953 h 0.357167 c 0.109132,0 0.17858,-0.02976 0.228187,-0.07937 0.04961,-0.04961 0.06945,-0.119055 0.06945,-0.218268 v -2.063622 c 0,-0.138897 -0.03968,-0.228189 -0.109135,-0.297638 -0.07937,-0.06945 -0.188502,-0.09921 -0.337322,-0.09921 h -0.277794 z m 0.932598,-1.379055 c 0.09921,0 0.198424,0.03969 0.277794,0.119055 0.07937,0.07937 0.119054,0.178582 0.119054,0.287716 0,0.09921 -0.03968,0.188504 -0.119054,0.267874 -0.07937,0.07937 -0.168662,0.119055 -0.277794,0.119055 -0.109136,0 -0.198427,-0.03968 -0.277797,-0.119055 -0.07937,-0.07937 -0.119055,-0.168661 -0.119055,-0.277795 0,-0.09921 0.03968,-0.198425 0.119055,-0.277795 0.07937,-0.07937 0.178583,-0.119055 0.277797,-0.119055 z"
       style="fill:#ffffff;fill-opacity:1;fill-rule:evenodd;stroke:none;stroke-width:0.26458332"
       inkscape:connector-curvature="0" />
    <path
       id="path35"
       d="m 45.721207,30.51892 h 1.617165 v 0.248032 c -0.218268,0 -0.357167,0.01984 -0.416693,0.05953 -0.05953,0.02976 -0.08929,0.07937 -0.08929,0.138898 0,0.04961 0.0099,0.09921 0.02976,0.15874 l 0.86315,1.944567 0.7937,-1.885039 c 0.01984,-0.03968 0.01984,-0.06945 0.01984,-0.09921 0,-0.168661 -0.168661,-0.277795 -0.505983,-0.31748 v -0.248032 h 1.369134 v 0.248032 c -0.138899,0.0099 -0.248034,0.04961 -0.327404,0.109134 -0.08929,0.05953 -0.158739,0.138897 -0.198424,0.23811 l -1.200473,2.797795 H 47.47727 l -1.279843,-2.867244 c -0.03968,-0.09921 -0.09921,-0.178582 -0.168661,-0.218268 -0.06945,-0.03968 -0.168661,-0.05953 -0.307559,-0.05953 z"
       style="fill:#ffffff;fill-opacity:1;fill-rule:evenodd;stroke:none;stroke-width:0.26458332"
       inkscape:connector-curvature="0" />
    <path
       id="path37"
       d="m 52.28908,32.195614 h -2.371182 c 0.01984,0.496062 0.109135,0.853228 0.29764,1.051653 0.198424,0.228189 0.456377,0.347244 0.773856,0.347244 0.45638,0 0.833387,-0.257953 1.111181,-0.773858 l 0.218268,0.09921 c -0.337322,0.664725 -0.833384,0.992126 -1.478266,0.992126 -0.436536,0 -0.813544,-0.15874 -1.111182,-0.47622 -0.297637,-0.317481 -0.456377,-0.724252 -0.456377,-1.220315 0,-0.545669 0.148818,-0.972283 0.446455,-1.299685 0.297638,-0.327402 0.664726,-0.496063 1.10126,-0.496063 0.317481,0 0.595275,0.08929 0.823465,0.248031 0.22819,0.15874 0.406773,0.396851 0.515906,0.70441 0.08929,0.218267 0.128976,0.496063 0.128976,0.823465 z m -2.371182,-0.248032 h 1.458425 c 0.08929,0 0.158742,-0.02976 0.198427,-0.07937 0.04961,-0.06945 0.07937,-0.168662 0.07937,-0.307559 0,-0.257953 -0.08929,-0.476221 -0.248031,-0.654803 -0.158742,-0.178583 -0.357166,-0.267874 -0.575434,-0.267874 -0.248031,0 -0.456377,0.109133 -0.625039,0.327401 -0.188505,0.218268 -0.277796,0.535748 -0.287718,0.982205 z"
       style="fill:#ffffff;fill-opacity:1;fill-rule:evenodd;stroke:none;stroke-width:0.26458332"
       inkscape:connector-curvature="0" />
    <path
       id="path39"
       d="m 55.771442,32.592464 c 0.14882,0.406771 0.317481,0.684567 0.505983,0.843307 0.188505,0.15874 0.426615,0.228189 0.704411,0.228189 0.248031,0 0.446455,-0.04961 0.585354,-0.168662 0.138898,-0.109133 0.208346,-0.248031 0.208346,-0.416692 0,-0.09921 -0.02976,-0.188504 -0.07937,-0.267875 -0.04961,-0.06945 -0.119054,-0.128976 -0.208346,-0.15874 -0.08929,-0.03968 -0.317479,-0.08929 -0.694489,-0.168661 -0.357164,-0.06945 -0.605195,-0.138898 -0.754015,-0.218268 -0.138898,-0.07937 -0.248031,-0.178582 -0.317481,-0.31748 -0.07937,-0.138898 -0.119055,-0.287717 -0.119055,-0.446457 0,-0.23811 0.07937,-0.456378 0.238112,-0.654803 0.208346,-0.248031 0.496062,-0.377008 0.882991,-0.377008 0.277794,0 0.545669,0.09921 0.783781,0.277795 l 0.228187,-0.257952 h 0.14882 l 0.08929,1.190551 h -0.22819 c -0.109133,-0.337323 -0.248031,-0.585354 -0.416692,-0.734173 -0.178584,-0.148819 -0.396852,-0.228189 -0.644883,-0.228189 -0.238109,0 -0.406773,0.05953 -0.535749,0.168661 -0.128974,0.109134 -0.188502,0.248032 -0.188502,0.406772 0,0.138898 0.05953,0.248031 0.178583,0.347244 0.109132,0.08929 0.337322,0.168661 0.674645,0.218268 0.386929,0.06945 0.644882,0.119055 0.763937,0.168661 0.188505,0.06945 0.337322,0.178583 0.436536,0.31748 0.109132,0.148819 0.158739,0.327402 0.158739,0.535748 0,0.287717 -0.109133,0.535748 -0.337322,0.734174 -0.22819,0.198425 -0.515906,0.297637 -0.873073,0.297637 -0.3274,0 -0.63496,-0.109133 -0.902832,-0.31748 l -0.257953,0.287716 H 55.6127 l -0.06945,-1.289763 z"
       style="fill:#ffffff;fill-opacity:1;fill-rule:evenodd;stroke:none;stroke-width:0.26458332"
       inkscape:connector-curvature="0" />
    <path
       id="path41"
       d="m 62.855221,30.51892 h 1.57748 v 0.248032 h -0.148817 c -0.128977,0 -0.22819,0.01984 -0.277797,0.04961 -0.0496,0.03969 -0.07937,0.08929 -0.07937,0.15874 0,0.02976 0.0099,0.05953 0.02977,0.08929 l 0.912754,1.954488 0.684567,-1.627087 c 0.04961,-0.109134 0.06945,-0.228189 0.06945,-0.337322 0,-0.07937 -0.02976,-0.148819 -0.09921,-0.198426 -0.06945,-0.04961 -0.198427,-0.07937 -0.396851,-0.08929 v -0.248032 h 1.359212 v 0.248032 c -0.257952,0.01984 -0.436536,0.138898 -0.525825,0.347244 l -1.230238,2.827559 c -0.208346,0.476221 -0.416692,0.813544 -0.625038,0.992126 -0.208347,0.178583 -0.436536,0.267874 -0.674646,0.267874 -0.178583,0 -0.317481,-0.04961 -0.436536,-0.148819 -0.09921,-0.08929 -0.158739,-0.208346 -0.158739,-0.347244 0,-0.109134 0.02976,-0.198425 0.09921,-0.267874 0.06945,-0.05953 0.158742,-0.09921 0.257953,-0.09921 0.08929,0 0.158742,0.02976 0.218268,0.08929 0.05953,0.05953 0.09921,0.128976 0.09921,0.208346 0,0.01984 -0.0099,0.05953 -0.01984,0.09921 -0.0099,0.03969 -0.0099,0.05953 -0.0099,0.07937 0,0.05953 0.02976,0.07937 0.109133,0.07937 0.06945,0 0.158739,-0.01984 0.257953,-0.07937 0.09921,-0.04961 0.188505,-0.138898 0.277796,-0.267874 0.07937,-0.119055 0.228188,-0.396851 0.436534,-0.823465 L 63.32152,31.06459 c -0.0496,-0.09921 -0.09921,-0.15874 -0.168661,-0.208347 -0.06945,-0.03969 -0.168662,-0.06945 -0.297638,-0.08929 z"
       style="fill:#ffffff;fill-opacity:1;fill-rule:evenodd;stroke:none;stroke-width:0.26458332"
       inkscape:connector-curvature="0" />
    <path
       id="path43"
       d="m 35.541994,23.574038 h 1.289763 l 1.805669,2.946614 v -2.946614 h 1.002047 v 4.762205 h -1.071495 l -2.023937,-3.30378 v 3.30378 h -1.002047 z"
       style="fill:#ffffff;fill-opacity:1;fill-rule:evenodd;stroke:none;stroke-width:0.26458332"
       inkscape:connector-curvature="0" />
    <path
       id="path45"
       d="m 34.946718,29.040652 h 2.142992 v 0.257953 h -0.357165 c -0.128977,0 -0.218268,0.01984 -0.267874,0.05953 -0.04961,0.04961 -0.07937,0.109134 -0.07937,0.198425 v 2.609291 c 0,0.297638 0.02976,0.535749 0.08929,0.684568 0.06945,0.23811 0.218268,0.416692 0.426614,0.55559 0.208347,0.138898 0.486142,0.208347 0.823465,0.208347 0.486141,0 0.843307,-0.119056 1.091338,-0.367087 0.238111,-0.248032 0.367087,-0.565512 0.367087,-0.972284 v -2.053701 c 0,-0.218267 -0.01984,-0.377007 -0.04961,-0.486141 -0.02976,-0.109134 -0.06945,-0.198425 -0.119056,-0.257953 -0.05953,-0.05953 -0.128976,-0.09921 -0.208346,-0.128976 -0.08929,-0.02976 -0.228189,-0.04961 -0.426614,-0.04961 V 29.04065 h 1.96441 v 0.257953 H 40.20498 c -0.218268,0 -0.386929,0.05953 -0.48614,0.178583 -0.109135,0.119055 -0.168664,0.287716 -0.168664,0.515905 v 2.232284 c 0,0.555591 -0.158739,0.982205 -0.476219,1.269921 -0.347244,0.337323 -0.823465,0.505985 -1.428661,0.505985 -0.515906,0 -0.912756,-0.07937 -1.210394,-0.218268 -0.297638,-0.148819 -0.505984,-0.357165 -0.644882,-0.634961 -0.09921,-0.198425 -0.148819,-0.466299 -0.148819,-0.783779 v -2.807717 c 0,-0.07937 -0.01984,-0.138898 -0.07937,-0.188504 -0.04961,-0.04961 -0.138898,-0.06945 -0.248032,-0.06945 h -0.367086 z"
       style="fill:#ffffff;fill-opacity:1;fill-rule:evenodd;stroke:none;stroke-width:0.26458332"
       inkscape:connector-curvature="0" />
    <path
       id="path47"
       d="m 61.277741,27.60207 c -0.119055,0.01984 -0.218268,0.02976 -0.30756,0.02976 -0.347242,0 -0.426614,-0.158741 -0.426614,-0.555591 v -1.57748 h 0.734174 v -0.684567 h -0.734174 v -1.02189 l -1.011968,0.188504 v 0.833386 H 59.0653 v 0.684567 h 0.466299 v 1.686614 c 0,0.873071 0.327404,1.250079 1.150866,1.250079 0.188505,0 0.38693,-0.01984 0.595276,-0.05953 z"
       style="fill:#ffffff;fill-opacity:1;fill-rule:evenodd;stroke:none;stroke-width:0.26458332"
       inkscape:connector-curvature="0" />
    <path
       id="path49"
       d="m 62.646875,32.5627 c -0.01984,0.347244 -0.08929,0.595276 -0.198424,0.744094 -0.109136,0.148819 -0.248031,0.22819 -0.406773,0.22819 -0.128977,0 -0.23811,-0.04961 -0.327401,-0.148819 C 61.624987,33.286955 61.5853,33.148054 61.5853,32.95955 v -2.142992 h 1.031812 V 30.528842 H 61.5853 v -1.369134 h -0.248031 c -0.01984,0.466299 -0.138898,0.823464 -0.337322,1.081417 -0.138898,0.178583 -0.347245,0.287717 -0.615119,0.337323 v 0.23811 h 0.585353 v 2.242205 c 0,0.248031 0.06945,0.436535 0.22819,0.595276 0.15874,0.148819 0.377008,0.218267 0.654804,0.218267 0.297638,0 0.535747,-0.09921 0.724252,-0.31748 0.188502,-0.218268 0.287716,-0.545669 0.30756,-0.992126 z"
       style="fill:#ffffff;fill-opacity:1;fill-rule:evenodd;stroke:none;stroke-width:0.26458332"
       inkscape:connector-curvature="0" />
    <path
       id="path51"
       d="m 54.918213,30.409786 c -0.575432,0 -1.051652,0.664725 -1.250077,1.40882 v -1.349292 l -1.200472,0.04961 v 0.257953 h 0.277793 c 0.128977,0 0.22819,0.03968 0.287716,0.109134 0.06945,0.07937 0.109136,0.188504 0.109136,0.347244 v 2.103307 c 0,0.05953 -0.02976,0.109134 -0.08929,0.148819 -0.05953,0.04961 -0.138898,0.06945 -0.248031,0.06945 h -0.327401 v 0.257953 h 2.063621 v -0.257953 h -0.416693 c -0.138898,0 -0.238111,-0.01984 -0.287715,-0.06945 -0.05953,-0.03969 -0.08929,-0.09921 -0.08929,-0.178583 v -0.605196 c 0,-0.644882 0.267872,-1.716378 0.803622,-1.716378 0.138898,0 0.109132,0.228189 0.40677,0.228189 0.22819,0 0.396851,-0.168662 0.396851,-0.396851 0,-0.248031 -0.208346,-0.406772 -0.436536,-0.406772 z"
       style="fill:#ffffff;fill-opacity:1;fill-rule:evenodd;stroke:none;stroke-width:0.26458332"
       inkscape:connector-curvature="0" />
    <path
       id="path53"
       d="m 32.506088,30.618133 c 0,-0.238111 -0.03968,-0.476221 -0.109134,-0.70441 -0.654803,0.436536 -1.309606,0.54567 -1.696535,0.307559 0.01984,-0.01984 0.03969,-0.05953 0.03969,-0.09921 0,-0.08929 -0.07937,-0.15874 -0.168662,-0.15874 -0.02976,0 -0.06945,0.0099 -0.09921,0.03968 -0.228189,-0.386929 -0.119055,-1.041732 0.31748,-1.696535 -0.228189,-0.06945 -0.466299,-0.109134 -0.704409,-0.109134 -0.238111,0 -0.486142,0.03969 -0.714331,0.109134 0.446457,0.654803 0.555591,1.309606 0.31748,1.696535 -0.02976,-0.02976 -0.05953,-0.03968 -0.09921,-0.03968 -0.08929,0 -0.158741,0.06945 -0.158741,0.15874 0,0.03968 0.0099,0.07937 0.02976,0.09921 -0.386929,0.238111 -1.041732,0.128977 -1.696535,-0.307559 -0.06945,0.228189 -0.09921,0.466299 -0.09921,0.70441 0,0.23811 0.02976,0.476221 0.09921,0.694488 0.654803,-0.426614 1.309606,-0.545669 1.696535,-0.307559 -0.01984,0.02976 -0.02976,0.05953 -0.02976,0.09921 0,0.08929 0.06945,0.15874 0.158741,0.15874 0.03968,0 0.06945,-0.0099 0.09921,-0.02976 0.238111,0.386929 0.128977,1.041732 -0.31748,1.706457 0.228189,0.06945 0.47622,0.09921 0.714331,0.09921 0.23811,0 0.47622,-0.02976 0.704409,-0.09921 -0.436535,-0.664725 -0.545669,-1.319528 -0.31748,-1.706457 0.02976,0.01984 0.06945,0.02976 0.09921,0.02976 0.08929,0 0.168662,-0.06945 0.168662,-0.15874 0,-0.03969 -0.01984,-0.06945 -0.03969,-0.09921 0.386929,-0.23811 1.041732,-0.119055 1.696535,0.307559 0.06945,-0.218267 0.109134,-0.456378 0.109134,-0.694488 z m -2.420787,0.436536 c -0.238111,0 -0.446457,-0.198426 -0.446457,-0.436536 0,-0.248032 0.208346,-0.436536 0.446457,-0.436536 0.23811,0 0.436535,0.188504 0.436535,0.436536 0,0.23811 -0.198425,0.436536 -0.436535,0.436536 z"
       style="fill:#ffffff;fill-opacity:1;fill-rule:evenodd;stroke:none;stroke-width:0.26458332"
       inkscape:connector-curvature="0" />
    <path
       id="path55"
       d="m 28.001836,25.508684 c -0.08929,0.267874 0.09921,0.347244 0.09921,0.347244 0,0 0.168661,0.09921 0.327401,-0.128976 0.138898,0.04961 0.208347,-0.04961 0.198425,-0.08929 -0.04961,0.0099 -0.08929,0.03968 -0.198425,-0.0099 -0.09921,-0.05953 -0.109134,-0.119056 -0.09921,-0.138898 0.01984,-0.04961 0.08929,-0.02976 0.138897,-0.01984 0.04961,0 0.109134,-0.02976 0.119055,-0.05953 0.0099,-0.04961 -0.01984,-0.09921 -0.05953,-0.109134 0.05953,0.119055 -0.119055,0.04961 -0.15874,0.02976 -0.03969,-0.01984 -0.208347,-0.128976 -0.07937,-0.148819 -0.02976,-0.01984 -0.08929,-0.01984 -0.119055,0.01984 -0.01984,0.02976 -0.0099,0.08929 0.01984,0.128976 0.03969,0.03968 0.08929,0.07937 0.06945,0.119055 -0.0099,0.01984 -0.04961,0.04961 -0.168662,0 -0.09921,-0.04961 -0.109133,-0.119055 -0.128976,-0.15874 -0.03969,0.01984 -0.07937,0.128976 0.03968,0.218268 z"
       style="fill:#ffffff;fill-opacity:1;fill-rule:evenodd;stroke:none;stroke-width:0.26458332"
       inkscape:connector-curvature="0" />
    <path
       id="path57"
       d="m 28.408608,24.963014 c -0.02976,-0.0099 -0.09921,-0.02976 -0.148819,-0.06945 -0.05953,-0.06945 -0.06945,-0.109134 -0.109134,-0.148818 -0.0099,-0.02976 -0.04961,0.0099 -0.06945,0.02976 -0.04961,0.04961 -0.01984,0.148819 0.05953,0.218267 0.15874,0.138898 0.287716,0.03968 0.267874,-0.02976 z"
       style="fill:#ffffff;fill-opacity:1;fill-rule:evenodd;stroke:none;stroke-width:0.26458332"
       inkscape:connector-curvature="0" />
    <path
       id="path59"
       d="m 28.755852,25.290416 c 0.09921,0.01984 0.178582,-0.0099 0.188504,-0.07937 0.0099,-0.01984 0.0099,-0.07937 -0.0099,-0.07937 -0.05953,0 -0.08929,0.02976 -0.178582,0 -0.04961,-0.0099 -0.128977,-0.04961 -0.148819,-0.06945 -0.05953,0.02976 -0.05953,0.188504 0.148819,0.228189 z"
       style="fill:#ffffff;fill-opacity:1;fill-rule:evenodd;stroke:none;stroke-width:0.26458332"
       inkscape:connector-curvature="0" />
    <path
       id="path61"
       d="m 25.640576,23.574038 c 0,0 0,2.807717 0,4.166929 0,3.948662 4.434803,6.230552 4.434803,6.230552 0,0 4.444725,-2.262047 4.444725,-6.230552 0,-1.359212 0,-4.166929 0,-4.166929 z m 1.666772,1.716378 c 0.05953,0.02976 0.248031,0.01984 0.337323,-0.128976 -0.168662,0 -0.257953,-0.168662 -0.257953,-0.257953 0.119055,0.03969 0.327401,0.08929 0.466299,-0.109134 -0.03969,0.04961 -0.287716,-0.119055 -0.208346,-0.277795 0.148819,0.07937 0.605197,-0.178583 0.39685,-0.416693 0.198425,-0.04961 0.377008,0.02976 0.416693,0.23811 0.109134,-0.168661 0.277795,-0.148819 0.357165,-0.148819 -0.02976,0.05953 -0.06945,0.208347 0.03969,0.238111 0.07937,0.01984 0.188504,-0.01984 0.188504,-0.148819 0.08929,0.04961 0.148819,0.307559 0.07937,0.386929 0,0 0.267874,-0.15874 0.377008,0.06945 -0.228189,-0.0099 -0.198425,0.446456 -0.05953,0.466299 -0.07937,0.178583 -0.228189,0.128976 -0.297638,0.07937 -0.02976,0.119055 -0.02976,0.466299 0.06945,0.605197 -0.07937,0.02976 -0.228189,0.0099 -0.337323,-0.09921 -0.04961,0.06945 -0.08929,0.267874 0.0099,0.456378 -0.07937,0.01984 -0.208346,0.0099 -0.31748,-0.109134 -0.06945,0.15874 -0.228189,0.436536 -0.535748,0.406772 0.04961,-0.277796 -0.277795,-0.396851 -0.426614,-0.109134 l -0.06945,-0.119055 c -0.09921,-0.128977 -0.15874,-0.476221 0.01984,-0.763937 -0.05953,-0.0099 -0.277795,-0.128977 -0.248031,-0.257953 z m -1.131024,-0.843307 c 0.257953,-0.198425 0.436536,0.04961 0.486142,0.248032 0.267874,-0.198426 0.01984,-0.476221 -0.02976,-0.496064 0,0 0.218268,-0.01984 0.297638,0.198426 0.07937,0.198425 -0.01984,0.327401 -0.01984,0.327401 0,0 0.06945,0 0.109133,-0.02976 0.148819,-0.109133 0.148819,-0.248031 0.138898,-0.267874 0,0 0.109134,0.06945 0.09921,0.198425 -0.0099,0.08929 -0.09921,0.158741 -0.138898,0.208347 -0.03968,0.04961 -0.128976,0.148819 -0.0099,0.47622 0.04961,0.158741 0.138897,0.277796 0.198425,0.30756 -0.03968,0.06945 -0.09921,0.148818 -0.06945,0.347244 -0.347244,0 -0.724252,-0.674646 -0.754016,-0.734173 0.198425,-0.0099 0.188504,-0.109134 0.168662,-0.168662 -0.06945,-0.228189 -0.505984,-0.01984 -0.54567,0.01984 0.01984,-0.218268 0.257953,-0.307559 0.406772,-0.277795 -0.02976,-0.337323 -0.337323,-0.357166 -0.337323,-0.357166 z m 0.456378,1.88504 c 0,0 0.138898,-0.22819 -0.06945,-0.38693 0,0 0.238111,-0.01984 0.297638,0.138898 0.02976,0.07937 -0.02976,0.208346 0.01984,0.307559 0.03968,0.08929 0.148819,0.138898 0.297638,0.148819 0.456377,0.05953 0.47622,-0.0099 0.595275,-0.01984 0.09921,0.03969 0.119055,0.188504 0.08929,0.208347 0.476221,0.09921 0.674646,-0.198426 0.744095,-0.317481 0.15874,0.109134 0.47622,-0.03969 0.555591,-0.06945 -0.09921,-0.109134 -0.178583,-0.23811 -0.158741,-0.307559 0.208347,0.09921 0.426614,-0.01984 0.535748,-0.06945 -0.257952,-0.15874 -0.198425,-0.446457 -0.198425,-0.535748 0.257953,-0.02976 1.736221,-0.248032 1.954488,-0.277795 0.228189,-0.02976 0.4663,0 0.54567,0.0099 0.08929,0.01984 0.416692,0.08929 0.684567,0.08929 0.257952,0 0.367086,-0.09921 0.406771,-0.188504 0.168667,-0.446454 -0.724247,-0.267872 -0.962357,-0.198423 -0.178583,0.05953 -1.061575,0.208347 -1.309606,0.218268 -0.585355,0.04961 -0.823465,-0.238111 -0.813544,-0.505985 0.0099,-0.277795 0.327402,-0.337322 0.684567,-0.31748 0.357166,0.0099 0.377008,-0.15874 0.744095,-0.178583 0.386929,-0.01984 0.952441,0.228189 1.031811,0.337323 -0.248032,-0.02976 -0.357165,0.0099 -0.486142,0.05953 -0.138898,0.04961 -0.39685,0.15874 -0.615118,0.15874 -0.06945,0 -0.218268,0 -0.357165,-0.04961 -0.198426,-0.06945 -0.456378,-0.178582 -0.634961,-0.178582 -0.109134,0 -0.228189,0.06945 -0.218268,0.218267 0.02976,0.257953 0.367087,0.317481 0.605197,0.317481 0.228189,0 0.585355,-0.05953 0.952441,-0.128977 0.386929,-0.06945 0.664725,-0.218267 1.031811,-0.257952 0.595276,-0.05953 0.615118,0.426614 0.615118,0.426614 0.248032,-0.257953 0.575433,-0.128977 0.605197,0.04961 0,0 -0.198425,-0.07937 -0.367086,0.0099 -0.208347,0.109134 -0.208347,0.287717 -0.456378,0.406772 -0.248032,0.109134 -0.912756,0.02976 -0.912756,0.02976 0,0 -0.109134,0.386929 0.148819,0.426615 0.267874,0.04961 0.595275,-0.178583 0.595275,-0.178583 0.05953,0.04961 0.05953,0.188504 0.05953,0.228189 0.198425,-0.148819 0.426614,-0.168662 0.525826,-0.109134 -0.277795,0.09921 0.267874,0.436535 0.317481,0.525827 0,0 -0.198426,0.02976 -0.119055,0.148819 0.0099,0.02976 0.119055,0.257952 0.515905,0.01984 -0.109134,0.257952 -0.357165,0.287716 -0.47622,0.23811 0,0 -0.04961,0.178582 0.297638,0.297638 -0.337323,0.01984 -0.486142,-0.128977 -0.505985,-0.198426 0,0 -0.228189,0.178583 -0.168661,0.426615 -0.257953,-0.138898 -0.06945,-0.4663 0.01984,-0.54567 -0.09921,-0.01984 -0.386929,-0.04961 -0.486141,0.128977 0,0 -0.03969,-0.168662 0.08929,-0.238111 0.07937,-0.04961 0.23811,-0.0099 0.31748,-0.0099 0.03968,0 0.05953,-0.02976 0.03968,-0.08929 -0.0099,-0.0099 -0.06945,-0.198425 -0.31748,-0.178582 -0.248031,0.01984 -0.654803,0.05953 -0.932599,0.08929 -0.119055,0.01984 -0.307559,0.06945 -0.426614,-0.03968 -0.109133,-0.119055 -0.08929,-0.277796 -0.198425,-0.436536 -0.23811,-0.31748 -0.942519,0.188504 -1.527874,0.466299 -0.31748,0.148819 -0.625039,0.188504 -0.813543,0.267874 -0.168662,0.06945 -0.297638,0.158741 -0.297638,0.277796 0,0.07937 0.09921,0.128976 0.09921,0.128976 -0.08929,0.06945 -0.565512,0.06945 -0.615118,-0.08929 -0.148819,0.188504 -0.54567,0.178583 -0.615119,0.138898 0.119055,-0.09921 -0.0099,-0.228189 -0.0099,-0.228189 -0.07937,0.09921 -0.267874,0.267874 -0.694488,0.06945 0,0 0.138898,-0.158741 -0.04961,-0.218268 -0.05953,-0.01984 -0.119055,0.0099 -0.128977,0.05953 -0.01984,0.05953 -0.168661,0.248031 -0.0099,0.367086 -0.148819,0.01984 -0.347244,-0.257952 -0.178583,-0.545669 -0.05953,-0.01984 -0.416693,0.0099 -0.426614,0.267874 -0.188504,-0.386929 0.188504,-0.466299 0.39685,-0.486142 0,0 -0.15874,-0.287716 -0.456377,-0.168661 0.09921,-0.347244 0.39685,-0.15874 0.595275,0.03969 z m 3.889134,1.101259 c -0.228189,0.04961 -0.357165,-0.218267 -0.327402,-0.357165 0,0 -0.297637,0.04961 -0.327401,0.347244 -0.15874,-0.248031 0.04961,-0.406772 0.148819,-0.426614 0,0 -0.208347,-0.228189 -0.486142,-0.05953 0.01984,-0.15874 0.307559,-0.327402 0.625039,-0.07937 0,0 -0.05953,-0.297638 -0.267874,-0.287716 0,0 0.128977,-0.08929 0.248032,-0.03968 0.148819,0.05953 0.148819,0.248031 0.248031,0.287716 0.138898,0.03968 0.347244,-0.09921 0.367087,-0.119055 0.01984,-0.01984 0.03969,-0.04961 0,-0.07937 -0.01984,-0.01984 -0.03968,-0.03969 -0.128976,-0.07937 -0.138898,-0.05953 -0.01984,-0.267874 0.0099,-0.297638 0.128976,-0.119055 0.357165,-0.228189 0.505984,-0.07937 0.09921,0.09921 0.15874,0.367087 0.168662,0.406772 0.0099,0.03968 0.09921,0.257953 0.327401,0.297638 -0.178582,0.119055 -0.416693,0.04961 -0.505984,-0.08929 0.0099,0.168661 -0.228189,0.486142 -0.31748,0.496063 0,0 0,-0.248032 -0.327402,-0.218268 -0.05953,0.0099 -0.109134,0.03968 -0.109134,0.07937 0,0.06945 -0.01984,0.188504 0.148819,0.297638 z m 3.760158,0.347244 c 0,3.750237 -4.206615,5.893229 -4.206615,5.893229 0,0 -4.196693,-2.162835 -4.196693,-5.893229 v -0.03968 h 8.403308 z"
       style="fill:#ffffff;fill-opacity:1;fill-rule:evenodd;stroke:none;stroke-width:0.26458332"
       inkscape:connector-curvature="0" />
  </g>
</svg>
