<?xml version="1.0" encoding="UTF-8" standalone="no"?>
<!-- Created with Inkscape (http://www.inkscape.org/) -->

<svg
   xmlns:dc="http://purl.org/dc/elements/1.1/"
   xmlns:cc="http://creativecommons.org/ns#"
   xmlns:rdf="http://www.w3.org/1999/02/22-rdf-syntax-ns#"
   xmlns:svg="http://www.w3.org/2000/svg"
   xmlns="http://www.w3.org/2000/svg"
   xmlns:sodipodi="http://sodipodi.sourceforge.net/DTD/sodipodi-0.dtd"
   xmlns:inkscape="http://www.inkscape.org/namespaces/inkscape"
   version="1.1"
   id="svg2"
   xml:space="preserve"
   width="793.44531"
   height="225.108"
   viewBox="0 0 793.44531 225.108"
   sodipodi:docname="201811_Logo_grey.svg"
   inkscape:version="0.92.2 5c3e80d, 2017-08-06"
   inkscape:export-filename="/mnt/uni/Uni_root/OneDrive/OneDrive - Newcastle University/Admin/Logo/Newcastle/201811_Logo.png"
   inkscape:export-xdpi="96"
   inkscape:export-ydpi="96"><metadata
     id="metadata8"><rdf:RDF><cc:Work
         rdf:about=""><dc:format>image/svg+xml</dc:format><dc:type
           rdf:resource="http://purl.org/dc/dcmitype/StillImage" /><dc:title></dc:title></cc:Work></rdf:RDF></metadata><defs
     id="defs6"><clipPath
       clipPathUnits="userSpaceOnUse"
       id="clipPath92"><path
         d="M 0.059998,168.831 H 595.084 V 0 H 0.059998 Z"
         id="path90"
         inkscape:connector-curvature="0" /></clipPath></defs><sodipodi:namedview
     pagecolor="#ffffff"
     bordercolor="#666666"
     borderopacity="1"
     objecttolerance="10"
     gridtolerance="10"
     guidetolerance="10"
     inkscape:pageopacity="0"
     inkscape:pageshadow="2"
     inkscape:window-width="1920"
     inkscape:window-height="1048"
     id="namedview4"
     showgrid="false"
     inkscape:zoom="2"
     inkscape:cx="436.54476"
     inkscape:cy="148.1104"
     inkscape:window-x="1920"
     inkscape:window-y="0"
     inkscape:window-maximized="1"
     inkscape:current-layer="g10" /><g
     id="g10"
     inkscape:groupmode="layer"
     inkscape:label="201811_Logo"
     transform="matrix(1.3333333,0,0,-1.3333333,0,225.108)"><g
       id="g12"
       transform="translate(244.234,131.1)"
       style="fill:#b3b3b3"><path
         d="m 0,0 c -0.097,7.461 -3.594,11.441 -9.646,11.441 -5.577,0 -9.262,-4.082 -9.639,-11.441 z m -9.457,-32.742 c -15.219,0 -25.145,10.85 -25.145,26.869 0,15.725 10.587,27.068 25.809,27.068 14.464,0 23.539,-10.252 23.539,-27.466 0,-0.694 0,-1.393 0,-2.09 h -34.221 c 0,-8.957 3.876,-13.834 10.586,-13.834 4.729,0 8.319,2.789 9.646,7.666 l 13.706,-1.195 C 11.246,-26.572 2.55,-32.742 -9.457,-32.742"
         style="fill:#b3b3b3;fill-opacity:1;fill-rule:nonzero;stroke:none"
         id="path14"
         inkscape:connector-curvature="0" /></g><g
       id="g16"
       transform="translate(580.342,131.1)"
       style="fill:#b3b3b3"><path
         d="m 0,0 c -0.1,7.461 -3.596,11.441 -9.647,11.441 -5.58,0 -9.265,-4.082 -9.642,-11.441 z m -9.461,-32.742 c -15.219,0 -25.147,10.85 -25.147,26.869 0,15.725 10.588,27.068 25.813,27.068 14.465,0 23.537,-10.252 23.537,-27.466 0,-0.694 0,-1.393 0,-2.09 h -34.219 c 0,-8.957 3.873,-13.834 10.586,-13.834 4.729,0 8.317,2.789 9.645,7.666 l 13.705,-1.195 C 11.242,-26.572 2.547,-32.742 -9.461,-32.742"
         style="fill:#b3b3b3;fill-opacity:1;fill-rule:nonzero;stroke:none"
         id="path18"
         inkscape:connector-curvature="0" /></g><g
       id="g20"
       transform="translate(260.387,150.901)"
       style="fill:#b3b3b3"><path
         d="M 0,0 H 16.04 L 23.489,-30.048 30.611,0 H 43.873 L 51.33,-30.543 60.207,0 H 72.179 L 57.433,-51.152 H 43.99 l -8.459,33.24 -8.46,-33.24 H 14.808 L 0,0"
         style="fill:#b3b3b3;fill-opacity:1;fill-rule:nonzero;stroke:none"
         id="path22"
         inkscape:connector-curvature="0" /></g><g
       id="g24"
       transform="translate(359.619,141.944)"
       style="fill:#b3b3b3"><path
         d="m 0,0 c -6.474,0 -10.939,-5.574 -11.125,-16.518 -0.189,-10.948 4.293,-16.618 10.561,-16.618 4.914,0 9.552,3.781 10.396,10.449 l 12.746,-1.49 c -1.666,-11.846 -11.093,-19.409 -24.16,-19.409 -15.15,0 -25.621,10.85 -25.349,26.869 0.279,16.319 11.226,27.069 27.421,27.069 12.329,0 20.776,-7.166 22.239,-19.409 L 9.52,-10.445 C 8.697,-3.682 4.494,0 0,0"
         style="fill:#b3b3b3;fill-opacity:1;fill-rule:nonzero;stroke:none"
         id="path26"
         inkscape:connector-curvature="0" /></g><g
       id="g28"
       transform="translate(401.664,114.978)"
       style="fill:#b3b3b3"><path
         d="m 0,0 c 0,-4.178 2.654,-6.664 7.381,-6.664 5.951,0 10.49,4.973 10.49,11.939 V 9.851 C 6.053,9.652 0,6.068 0,0 Z M 18.156,-6.967 C 14.848,-13.135 9.27,-16.52 2.08,-16.52 c -10.582,0 -17.012,6.172 -17.012,15.627 0,12.037 10.965,18.406 32.803,18.605 v 2.19 c 0,5.174 -2.738,7.859 -8.133,7.859 -5.951,0 -9.357,-2.486 -10.109,-7.158 l -13.238,1.49 c 2.269,10.051 10.398,15.225 24.105,15.225 15.317,0 21.272,-5.971 21.272,-20 V -5.373 c 0,-4.182 0.379,-7.465 1.418,-9.856 H 19.102 c -0.571,2.391 -0.854,5.176 -0.946,8.262"
         style="fill:#b3b3b3;fill-opacity:1;fill-rule:nonzero;stroke:none"
         id="path30"
         inkscape:connector-curvature="0" /></g><g
       id="g32"
       transform="translate(450.975,115.775)"
       style="fill:#b3b3b3"><path
         d="m 0,0 c 1.224,-4.68 5.476,-7.363 11.812,-7.363 5.391,0 8.416,2.388 8.416,5.572 0,4.479 -4.256,4.277 -11.818,5.871 -12.098,2.488 -18.153,6.568 -18.153,15.822 0,9.556 7.75,16.717 20.61,16.717 10.494,0 17.584,-4.674 20.611,-13.336 L 20.039,21.097 c -1.705,4.08 -4.823,5.77 -9.737,5.77 -4.728,0 -7.281,-1.79 -7.281,-5.075 0,-4.474 4.918,-4.279 14.084,-6.267 C 28.168,13.134 33.56,9.156 33.56,0.199 c 0,-10.053 -8.514,-17.314 -22.972,-17.314 -11.725,0 -20.045,5.869 -22.409,15.426 L 0,0"
         style="fill:#b3b3b3;fill-opacity:1;fill-rule:nonzero;stroke:none"
         id="path34"
         inkscape:connector-curvature="0" /></g><path
       d="m 524.65,99.749 h 14.68 v 69.081 h -14.68 z"
       style="fill:#b3b3b3;fill-opacity:1;fill-rule:nonzero;stroke:none"
       id="path36"
       inkscape:connector-curvature="0" /><g
       id="g38"
       transform="translate(225.566,58.09)"
       style="fill:#b3b3b3"><path
         d="m 0,0 c 2.113,3.53 4.604,6.178 7.475,7.94 2.868,1.763 6.11,2.65 9.738,2.65 3.113,0 5.728,-0.623 7.843,-1.863 2.115,-1.238 3.807,-3.201 5.084,-5.877 1.275,-2.684 1.913,-5.686 1.913,-9.012 v -23.213 c 0,-1.73 0.379,-2.961 1.151,-3.689 0.766,-0.729 2.051,-1.096 3.861,-1.096 h 3.31 v -3.744 H 15.403 v 3.744 h 2.369 c 2.22,0 3.766,0.354 4.641,1.067 0.875,0.707 1.313,1.765 1.313,3.183 v 20.299 c 0,4.42 -0.667,7.687 -2.004,9.812 -1.869,3.04 -4.705,4.557 -8.505,4.557 -3.774,0 -6.92,-1.535 -9.437,-4.6 C 1.26,-2.914 0,-6.916 0,-11.842 v -17.562 c 0,-1.721 0.39,-2.943 1.18,-3.668 0.787,-0.729 2.08,-1.088 3.886,-1.088 h 3.259 v -3.744 h -25.389 v 3.744 h 3.277 c 1.648,0 2.901,0.342 3.759,1.018 0.858,0.677 1.288,1.523 1.288,2.547 v 30.81 c 0,2.035 -0.545,3.572 -1.631,4.631 -1.091,1.049 -2.654,1.58 -4.695,1.58 h -2.417 V 9.754 L -0.623,10.602 0,0"
         style="fill:#b3b3b3;fill-opacity:1;fill-rule:nonzero;stroke:none"
         id="path40"
         inkscape:connector-curvature="0" /></g><g
       id="g42"
       transform="translate(280.323,87.615)"
       style="fill:#b3b3b3"><path
         d="m 0,0 c 1.522,0 2.865,-0.576 4.02,-1.731 1.149,-1.152 1.727,-2.511 1.727,-4.069 0,-1.528 -0.563,-2.846 -1.678,-3.967 -1.122,-1.121 -2.463,-1.68 -4.021,-1.68 -1.557,0 -2.907,0.563 -4.038,1.703 -1.145,1.137 -1.708,2.465 -1.708,3.998 0,1.518 0.574,2.863 1.729,4.015 C -2.819,-0.576 -1.493,0 0,0 Z m -13.395,-19.978 19.142,0.625 v -40.93 c 0,-1.121 0.273,-1.91 0.815,-2.384 0.779,-0.676 1.761,-1.018 2.953,-1.018 h 5.391 v -3.744 h -27.264 v 3.744 h 5.042 c 1.49,0 2.584,0.359 3.281,1.09 0.692,0.728 1.041,1.789 1.041,3.176 v 29.959 c 0,1.892 -0.546,3.324 -1.63,4.287 -1.09,0.965 -2.705,1.447 -4.845,1.447 h -3.926 v 3.748"
         style="fill:#b3b3b3;fill-opacity:1;fill-rule:nonzero;stroke:none"
         id="path44"
         inkscape:connector-curvature="0" /></g><g
       id="g46"
       transform="translate(491.059,87.615)"
       style="fill:#b3b3b3"><path
         d="m 0,0 c 1.521,0 2.861,-0.576 4.015,-1.731 1.151,-1.152 1.729,-2.511 1.729,-4.069 0,-1.528 -0.565,-2.846 -1.676,-3.967 -1.127,-1.121 -2.465,-1.68 -4.023,-1.68 -1.555,0 -2.907,0.563 -4.04,1.703 -1.148,1.137 -1.71,2.465 -1.71,3.998 0,1.518 0.576,2.863 1.73,4.015 C -2.823,-0.576 -1.496,0 0,0 Z m -13.399,-19.978 19.143,0.625 v -40.93 c 0,-1.121 0.273,-1.91 0.812,-2.384 0.787,-0.676 1.766,-1.018 2.959,-1.018 h 5.389 v -3.744 h -27.266 v 3.744 h 5.039 c 1.493,0 2.588,0.359 3.284,1.09 0.693,0.728 1.044,1.789 1.044,3.176 v 29.959 c 0,1.892 -0.546,3.324 -1.632,4.287 -1.09,0.965 -2.705,1.447 -4.848,1.447 h -3.924 v 3.748"
         style="fill:#b3b3b3;fill-opacity:1;fill-rule:nonzero;stroke:none"
         id="path48"
         inkscape:connector-curvature="0" /></g><g
       id="g50"
       transform="translate(291.916,67.844)"
       style="fill:#b3b3b3"><path
         d="m 0,0 h 23.522 v -3.537 c -3.133,-0.07 -5.135,-0.344 -5.997,-0.832 -0.867,-0.492 -1.302,-1.187 -1.302,-2.096 0,-0.748 0.152,-1.482 0.453,-2.222 l 12.562,-28.149 11.58,27.278 c 0.168,0.47 0.254,0.941 0.254,1.416 0,2.464 -2.457,3.996 -7.357,4.605 V 0 H 53.486 V -3.537 C 51.482,-3.74 49.885,-4.277 48.699,-5.148 47.51,-6.021 46.588,-7.185 45.943,-8.664 L 28.43,-49.117 H 25.604 L 7.043,-7.539 C 6.359,-6.074 5.533,-5.051 4.566,-4.467 3.596,-3.877 2.072,-3.572 0,-3.537 V 0"
         style="fill:#b3b3b3;fill-opacity:1;fill-rule:nonzero;stroke:none"
         id="path52"
         inkscape:connector-curvature="0" /></g><g
       id="g54"
       transform="translate(353.07,47.243)"
       style="fill:#b3b3b3"><path
         d="m 0,0 h 21.039 c 1.245,0 2.209,0.412 2.899,1.244 0.689,0.832 1.039,2.25 1.039,4.256 0,3.728 -1.182,6.9 -3.551,9.513 -2.367,2.617 -5.152,3.92 -8.369,3.92 -3.594,0 -6.641,-1.574 -9.145,-4.732 C 1.412,11.043 0.108,6.308 0,0 Z M 34.342,-3.539 H 0 c 0.174,-7.26 1.537,-12.381 4.11,-15.364 2.941,-3.351 6.695,-5.033 11.24,-5.033 6.717,0 12.107,3.744 16.182,11.24 l 3.23,-1.412 c -4.965,-9.609 -12.115,-14.408 -21.478,-14.408 -6.385,0 -11.75,2.314 -16.108,6.926 -4.361,4.621 -6.543,10.525 -6.543,17.724 0,7.739 2.149,14 6.436,18.77 4.295,4.767 9.574,7.152 15.855,7.152 4.61,0 8.598,-1.191 11.957,-3.562 3.35,-2.375 5.877,-5.787 7.576,-10.227 1.19,-3.119 1.819,-7.06 1.885,-11.806"
         style="fill:#b3b3b3;fill-opacity:1;fill-rule:nonzero;stroke:none"
         id="path56"
         inkscape:connector-curvature="0" /></g><g
       id="g58"
       transform="translate(438.148,37.875)"
       style="fill:#b3b3b3"><path
         d="m 0,0 c 2.106,-5.886 4.534,-9.957 7.274,-12.216 2.732,-2.266 6.109,-3.393 10.127,-3.393 3.703,0 6.553,0.813 8.539,2.44 1.992,1.625 2.986,3.685 2.986,6.189 0,1.439 -0.365,2.687 -1.095,3.769 -0.731,1.083 -1.743,1.883 -3.032,2.415 -1.297,0.527 -4.65,1.308 -10.051,2.343 -5.169,1.024 -8.771,2.1 -10.802,3.217 -2.028,1.121 -3.615,2.668 -4.744,4.637 -1.133,1.971 -1.696,4.113 -1.696,6.426 0,3.498 1.159,6.671 3.496,9.525 3.01,3.633 7.217,5.453 12.631,5.453 4.121,0 7.944,-1.336 11.461,-4 l 3.352,3.582 h 2.076 L 31.84,13.319 H 28.512 C 27.016,18.264 25,21.821 22.454,24 c -2.549,2.172 -5.686,3.262 -9.414,3.262 -3.223,0 -5.75,-0.803 -7.584,-2.406 -1.838,-1.608 -2.75,-3.565 -2.75,-5.881 0,-2.041 0.843,-3.73 2.541,-5.076 1.658,-1.383 4.919,-2.459 9.787,-3.244 5.644,-0.948 9.322,-1.748 11.023,-2.389 2.76,-1.018 4.9,-2.58 6.424,-4.689 1.514,-2.114 2.273,-4.694 2.273,-7.729 0,-4.185 -1.65,-7.734 -4.955,-10.637 -3.308,-2.904 -7.502,-4.359 -12.584,-4.359 -4.713,0 -9.086,1.551 -13.117,4.635 L 0.383,-18.728 H -2.316 L -3.33,0 H 0"
         style="fill:#b3b3b3;fill-opacity:1;fill-rule:nonzero;stroke:none"
         id="path60"
         inkscape:connector-curvature="0" /></g><g
       id="g62"
       transform="translate(541.076,67.844)"
       style="fill:#b3b3b3"><path
         d="m 0,0 h 22.889 v -3.537 h -2.143 c -2.008,0 -3.384,-0.26 -4.109,-0.769 -0.733,-0.516 -1.098,-1.256 -1.098,-2.215 0,-0.428 0.102,-0.86 0.313,-1.289 l 13.34,-28.514 9.97,23.641 c 0.709,1.675 1.071,3.32 1.071,4.923 0,1.239 -0.496,2.204 -1.471,2.887 -0.983,0.69 -2.943,1.133 -5.877,1.336 V 0 H 52.649 V -3.537 C 48.895,-3.906 46.375,-5.582 45.086,-8.568 L 27.178,-49.59 c -3.041,-6.976 -6.072,-11.752 -9.1,-14.334 -3.052,-2.615 -6.336,-3.92 -9.836,-3.92 -2.543,0 -4.593,0.7 -6.136,2.086 -1.545,1.395 -2.321,3.112 -2.321,5.149 0,1.527 0.483,2.789 1.426,3.765 0.951,0.993 2.141,1.485 3.563,1.485 1.295,0 2.38,-0.422 3.265,-1.262 0.873,-0.834 1.323,-1.848 1.323,-3.023 0,-0.371 -0.071,-0.873 -0.204,-1.516 -0.136,-0.498 -0.203,-0.867 -0.203,-1.105 0,-0.811 0.524,-1.213 1.582,-1.213 1.121,0 2.395,0.402 3.815,1.201 1.418,0.803 2.74,2.084 3.968,3.853 1.231,1.768 3.368,5.768 6.422,12.014 L 6.688,-7.81 C 6.033,-6.488 5.233,-5.504 4.26,-4.857 3.287,-4.211 1.867,-3.771 0,-3.537 V 0"
         style="fill:#b3b3b3;fill-opacity:1;fill-rule:nonzero;stroke:none"
         id="path64"
         inkscape:connector-curvature="0" /></g><g
       id="g66"
       transform="translate(143.96,168.829)"
       style="fill:#b3b3b3"><path
         d="M 0,0 H 18.751 L 44.907,-42.631 44.889,0 H 59.517 V -69.066 H 43.901 L 14.637,-21.109 14.606,-69.066 H 0 V 0"
         style="fill:#b3b3b3;fill-opacity:1;fill-rule:nonzero;stroke:none"
         id="path68"
         inkscape:connector-curvature="0" /></g><g
       id="g70"
       transform="translate(135.27,89.367)"
       style="fill:#b3b3b3"><path
         d="m 0,0 h 31.25 v -3.742 h -5.233 c -1.849,0 -3.144,-0.309 -3.879,-0.916 -0.74,-0.613 -1.108,-1.543 -1.108,-2.795 V -45.22 c 0,-4.438 0.39,-7.789 1.166,-10.059 1.147,-3.355 3.254,-6.035 6.312,-8.027 3.055,-2.004 7.054,-2.996 11.99,-2.996 6.823,0 12.026,1.764 15.612,5.307 3.576,3.539 5.371,8.271 5.371,14.199 v 29.839 c 0,3.055 -0.216,5.364 -0.642,6.94 -0.429,1.572 -1.045,2.801 -1.846,3.682 -0.799,0.876 -1.817,1.529 -3.042,1.956 -1.234,0.422 -3.283,0.637 -6.145,0.637 V 0 h 28.561 v -3.742 h -2.026 c -3.182,0 -5.549,-0.858 -7.108,-2.568 -1.557,-1.717 -2.333,-4.201 -2.333,-7.457 v -32.318 c 0,-8.069 -2.304,-14.262 -6.916,-18.565 -5.188,-4.853 -12.088,-7.275 -20.702,-7.275 -7.459,0 -13.325,1.058 -17.6,3.172 -4.273,2.125 -7.376,5.17 -9.307,9.138 -1.459,3.01 -2.184,6.813 -2.184,11.395 v 40.765 c 0,1.147 -0.4,2.057 -1.191,2.719 -0.795,0.662 -1.98,0.994 -3.564,0.994 L 0,-3.742 V 0"
         style="fill:#b3b3b3;fill-opacity:1;fill-rule:nonzero;stroke:none"
         id="path72"
         inkscape:connector-curvature="0" /></g><g
       id="g74"
       transform="translate(518.031,110.367)"
       style="fill:#b3b3b3"><path
         d="m 0,0 c -1.642,-0.322 -3.146,-0.465 -4.447,-0.465 -5.076,0 -6.168,2.287 -6.168,8.065 V 30.586 H 0 v 9.949 H -10.615 V 55.373 L -25.443,52.658 V 40.535 h -6.602 v -9.949 h 6.602 V 6.004 c 0,-12.539 4.779,-18.012 16.814,-18.012 2.746,0 5.643,0.315 8.629,0.873 L 0,0"
         style="fill:#b3b3b3;fill-opacity:1;fill-rule:nonzero;stroke:none"
         id="path76"
         inkscape:connector-curvature="0" /></g><g
       id="g78"
       transform="translate(537.916,38.284)"
       style="fill:#b3b3b3"><path
         d="m 0,0 c -0.271,-5.016 -1.223,-8.612 -2.846,-10.789 -1.629,-2.182 -3.593,-3.27 -5.902,-3.27 -1.932,0 -3.529,0.717 -4.779,2.148 -1.256,1.434 -1.881,3.497 -1.881,6.194 V 25.42 h 14.951 v 4.134 h -14.951 v 19.795 h -3.496 c -0.315,-6.652 -1.938,-11.857 -4.893,-15.592 -2.045,-2.558 -5.027,-4.164 -8.941,-4.82 V 25.42 h 8.472 V -7.157 c 0,-3.554 1.125,-6.431 3.381,-8.619 2.252,-2.195 5.379,-3.291 9.377,-3.291 4.33,0 7.862,1.563 10.584,4.688 C 1.797,-11.254 3.26,-6.459 3.465,0 H 0"
         style="fill:#b3b3b3;fill-opacity:1;fill-rule:nonzero;stroke:none"
         id="path80"
         inkscape:connector-curvature="0" /></g><g
       id="g82"
       transform="translate(425.549,69.557)"
       style="fill:#b3b3b3"><path
         d="m 0,0 c -8.322,0 -15.336,-9.726 -18.217,-20.6 v 19.723 l -17.268,-0.836 v -3.748 h 4.127 c 1.817,0 3.211,-0.529 4.184,-1.599 0.979,-1.067 1.461,-2.747 1.461,-5.053 V -42.43 c 0,-0.879 -0.406,-1.634 -1.217,-2.257 -0.818,-0.627 -2.021,-0.94 -3.615,-0.94 h -4.734 v -3.744 h 29.761 v 3.744 h -6.06 c -1.967,0 -3.356,0.303 -4.17,0.916 -0.813,0.611 -1.221,1.492 -1.221,2.641 v 8.838 c 0,9.154 3.871,24.783 11.617,24.783 2.114,0 1.688,-3.379 5.914,-3.379 3.377,0 5.774,2.535 5.774,5.773 C 6.336,-2.394 3.379,0 0,0"
         style="fill:#b3b3b3;fill-opacity:1;fill-rule:nonzero;stroke:none"
         id="path84"
         inkscape:connector-curvature="0" /></g><g
       id="g86"
       style="fill:#b3b3b3"><g
         id="g88"
         clip-path="url(#clipPath92)"
         style="fill:#b3b3b3"><g
           id="g94"
           transform="translate(0,168.829)"
           style="fill:#b3b3b3"><path
             d="m 0,0 c 0,0 0.003906,-40.81 0.003906,-60.611 0,-57.262 64.494094,-90.386 64.494094,-90.386 0,0 64.494,32.875 64.494,90.386 0,19.801 0.002,60.611 0.002,60.611 L 0,0"
             style="fill:#b3b3b3;fill-opacity:1;fill-rule:nonzero;stroke:none"
             id="path96"
             inkscape:connector-curvature="0" /></g></g></g><g
       id="g98"
       transform="translate(99.631,66.491)"><path
         d="m 0,0 c 0,3.468 -0.519,6.894 -1.513,10.187 -9.553,-6.26 -19.041,-7.931 -24.664,-4.504 0.309,0.397 0.498,0.897 0.498,1.438 0,1.287 -1.047,2.336 -2.336,2.336 -0.542,0 -1.039,-0.188 -1.437,-0.496 -3.427,5.621 -1.756,15.112 4.504,24.663 -3.293,0.994 -6.718,1.511 -10.185,1.511 -3.468,0 -6.892,-0.517 -10.186,-1.511 6.261,-9.551 7.932,-19.042 4.504,-24.661 -0.395,0.308 -0.893,0.496 -1.437,0.496 -1.289,0 -2.334,-1.047 -2.334,-2.336 0,-0.541 0.186,-1.039 0.496,-1.436 -5.624,-3.43 -15.114,-1.758 -24.665,4.502 C -69.751,6.898 -70.27,3.472 -70.27,0.006 h 0.003 c 0,-3.469 0.519,-6.893 1.513,-10.186 9.552,6.26 19.042,7.932 24.667,4.502 -0.312,-0.393 -0.499,-0.897 -0.499,-1.44 0,-1.285 1.045,-2.334 2.334,-2.334 0.544,0 1.042,0.186 1.437,0.497 3.428,-5.62 1.757,-15.112 -4.504,-24.663 3.294,-0.996 6.718,-1.513 10.186,-1.513 3.467,0 6.892,0.517 10.185,1.512 -6.26,9.552 -7.931,19.042 -4.504,24.664 0.397,-0.311 0.895,-0.497 1.437,-0.497 1.289,0 2.336,1.049 2.336,2.334 0,0.543 -0.189,1.043 -0.498,1.438 5.624,3.43 15.113,1.758 24.665,-4.502 C -0.516,-6.889 0.002,-3.465 0.002,0 H 0"
         style="fill:#ffffff;fill-opacity:1;fill-rule:nonzero;stroke:none"
         id="path100"
         inkscape:connector-curvature="0" /></g><g
       id="g102"
       transform="translate(70.852,66.497)"
       style="fill:#b3b3b3"><path
         d="m 0,0 c 0,-3.508 -2.846,-6.356 -6.355,-6.356 -3.509,0 -6.354,2.848 -6.354,6.356 0,3.503 2.845,6.351 6.354,6.351 C -2.846,6.351 0,3.503 0,0"
         style="fill:#b3b3b3;fill-opacity:1;fill-rule:nonzero;stroke:none"
         id="path104"
         inkscape:connector-curvature="0" /></g><path
       d="m 3.7432,108.218 h 121.508 v 56.869 H 3.7432 Z"
       style="fill:#ffffff;fill-opacity:1;fill-rule:nonzero;stroke:none"
       id="path106"
       inkscape:connector-curvature="0" /><g
       id="g108"
       transform="translate(74.316,124.604)"
       style="fill:#b3b3b3"><path
         d="m 0,0 c 0.595,-0.422 0.315,-0.891 0.03,-1.158 -0.289,-0.27 -3.375,-2.291 -5.375,-1.67 -1.526,0.475 -1.522,3.213 -3.633,4.099 -1.698,0.711 -3.594,-0.574 -3.594,-0.574 2.991,0.14 3.885,-4.152 3.885,-4.152 -4.562,3.576 -8.799,1.145 -9.099,-1.17 4.038,2.44 7.14,-0.902 7.14,-0.902 -1.439,-0.205 -4.551,-2.502 -2.215,-6.168 0.442,4.305 4.699,5.039 4.699,5.039 -0.368,-2.017 1.443,-5.974 4.776,-5.152 -2.422,1.592 -2.045,3.236 -2.045,4.27 0,0.646 0.653,1.021 1.517,1.113 4.739,0.504 4.739,-3.086 4.739,-3.086 1.295,0.129 4.799,4.764 4.629,7.215 1.327,-1.981 4.811,-3.076 7.334,-1.338 C 9.545,-3.111 8.191,0.081 8.019,0.692 7.848,1.3 7.04,5.195 5.549,6.687 3.433,8.802 0.093,7.173 -1.694,5.49 -2.247,4.971 -3.88,2.047 -1.917,1.158 -0.57,0.549 -0.313,0.223 0,0"
         style="fill:#b3b3b3;fill-opacity:1;fill-rule:nonzero;stroke:none"
         id="path110"
         inkscape:connector-curvature="0" /></g><g
       id="g112"
       transform="translate(23.159,134.054)"
       style="fill:#b3b3b3"><path
         d="m 0,0 c -4.935,0 -10.447,9.885 -10.864,10.736 2.786,0.205 2.658,1.579 2.381,2.476 -1.026,3.319 -7.269,0.207 -7.842,-0.365 0.215,3.225 3.655,4.51 5.827,4.126 -0.383,4.925 -4.938,5.17 -4.938,5.17 3.855,2.86 6.387,-0.784 7.197,-3.576 3.904,2.893 0.201,6.843 -0.502,7.212 0,0 3.114,0.278 4.365,-2.909 1.171,-2.966 -0.347,-4.809 -0.347,-4.809 0,0 1,0.029 1.648,0.482 2.181,1.525 2.083,3.55 1.968,3.945 0,0 1.626,-1.02 1.423,-2.92 C 0.179,18.293 -1.098,17.231 -1.637,16.535 -2.174,15.839 -3.483,14.342 -1.843,9.578 -1.044,7.25 0.191,5.471 1.02,5.083 0.515,4.081 -0.393,2.924 0,0"
         style="fill:#b3b3b3;fill-opacity:1;fill-rule:nonzero;stroke:none"
         id="path114"
         inkscape:connector-curvature="0" /></g><g
       id="g116"
       transform="translate(12.387,126.866)"
       style="fill:#b3b3b3"><path
         d="m 0,0 c -3.0508,-0.223 -8.5058,-1.461 -5.7168,-7.105 0.1162,3.828 5.2448,4.199 6.1578,3.943 -2.484,-4.17 0.414,-8.211 2.671,-7.982 -2.325,1.846 -0.246,4.477 0.021,5.426 0.187,0.672 1.043,1.076 1.875,0.836 2.81,-0.813 0.766,-3.194 0.766,-3.194 6.206,-2.785 9.006,-0.351 10.167,0.994 0,0 1.884,-1.847 0.026,-3.209 1.005,-0.628 6.87,-0.843 9.059,1.891 0.723,-2.211 7.654,-2.189 8.842,-1.248 0,0 -1.355,0.758 -1.355,1.824 0,1.741 1.912,3.069 4.288,4.106 2.761,1.204 7.279,1.752 11.854,3.923 8.43,4.001 18.799,11.404 22.142,6.768 1.704,-2.364 1.286,-4.672 2.987,-6.29 1.701,-1.624 4.449,-0.894 6.124,-0.697 4.128,0.487 9.953,1.098 13.561,1.349 3.6,0.25 4.56,-2.445 4.637,-2.665 0.278,-0.786 -0.052,-1.279 -0.572,-1.244 -1.203,0.075 -3.387,0.627 -4.652,-0.09 -1.817,-1.028 -1.306,-3.517 -1.306,-3.517 1.535,2.57 5.697,2.213 7.157,1.957 -1.402,-1.211 -4.021,-5.945 -0.285,-7.967 -0.974,3.584 2.393,6.109 2.393,6.109 0.304,-1.011 2.518,-3.054 7.384,-2.775 -5.125,1.617 -4.308,4.246 -4.308,4.246 1.671,-0.732 5.264,-0.25 6.965,3.523 -5.805,-3.554 -7.416,-0.172 -7.642,0.225 -1.033,1.826 1.753,2.194 1.753,2.194 -0.625,1.238 -8.596,6.151 -4.629,7.704 -1.396,0.807 -4.678,0.471 -7.633,-1.686 0.115,0.652 0.028,2.571 -0.865,3.378 0,0 -4.783,-3.327 -8.564,-2.683 -3.781,0.644 -2.257,6.282 -2.257,6.282 0,0 9.714,-1.182 13.325,0.488 3.615,1.67 3.587,4.25 6.614,5.825 2.433,1.267 5.335,0.22 5.335,0.22 -0.446,2.495 -5.174,4.453 -8.81,0.631 0,0 -0.253,7.075 -8.918,6.241 -5.371,-0.516 -9.424,-2.733 -14.959,-3.745 -5.4,-0.988 -10.499,-1.935 -13.914,-1.935 -3.417,0 -8.337,0.93 -8.704,4.664 -0.219,2.222 1.532,3.176 3.164,3.176 2.592,0 6.221,-1.529 9.146,-2.539 2.089,-0.724 4.146,-0.736 5.275,-0.736 3.063,0 6.917,1.532 8.847,2.289 1.932,0.757 3.453,1.23 7.154,0.916 -1.154,1.509 -9.395,5.105 -15.005,4.794 -5.342,-0.297 -5.655,-2.755 -10.854,-2.533 -5.201,0.219 -9.817,-0.644 -9.963,-4.572 -0.147,-3.945 3.332,-8.112 11.866,-7.487 3.521,0.218 16.464,2.39 19.05,3.207 3.44,1.088 16.397,3.626 13.938,-2.831 -0.524,-1.377 -2.088,-2.834 -5.916,-2.834 -3.828,0 -8.604,1.1 -9.875,1.319 -1.276,0.221 -4.693,0.616 -8.046,0.147 -3.12,-0.437 -24.548,-3.501 -28.383,-4.045 0,-1.26 -0.803,-5.44 2.903,-7.705 C 42.686,6.525 39.485,4.832 36.455,6.203 36.217,5.188 37.45,3.313 38.9,1.734 37.686,1.338 33.096,-0.822 30.702,0.735 29.737,-0.987 26.866,-5.314 19.946,-3.89 20.388,-3.559 20.129,-1.472 18.58,-0.763 16.871,-0.992 16.665,-1.943 9.909,-1.158 7.861,-0.924 6.186,-0.257 5.598,1.06 4.973,2.442 5.848,4.404 5.414,5.502 4.508,7.805 1.076,7.5 1.076,7.5 4.047,5.213 2.066,1.973 2.066,1.973 -0.779,4.816 -5.1523,7.568 -6.6621,2.551 -2.236,4.188 0.044,0.002 0.044,0.002"
         style="fill:#b3b3b3;fill-opacity:1;fill-rule:nonzero;stroke:none"
         id="path118"
         inkscape:connector-curvature="0" /></g><g
       id="g120"
       transform="translate(48.076,145.166)"
       style="fill:#b3b3b3"><path
         d="m 0,0 c -0.188,-0.966 -1.37,-1.42 -2.847,-1.137 -2.877,0.551 -2.883,2.818 -1.959,3.204 0.355,-0.268 1.243,-0.85 2.045,-1.013 1.213,-0.245 1.73,-0.016 2.508,0.011 C 0.114,1.075 0.077,0.389 0,0 Z m -7.613,-7.441 c -2.359,-3.285 -4.721,-1.812 -4.721,-1.812 0,0 -2.68,1.046 -1.387,4.884 -1.738,1.215 -1.101,2.802 -0.571,3.093 0.25,-0.517 0.418,-1.512 1.915,-2.263 1.498,-0.755 2.066,-0.336 2.235,-10e-4 0.307,0.609 -0.443,1.174 -0.974,1.749 -0.515,0.565 -0.636,1.46 -0.278,1.896 0.452,0.551 1.306,0.528 1.683,0.25 -1.836,-0.329 0.574,-1.83 1.142,-2.115 0.57,-0.284 3.216,-1.345 2.386,0.323 0.447,-0.137 0.948,-0.775 0.772,-1.467 -0.134,-0.547 -0.926,-0.984 -1.686,-0.905 -0.779,0.083 -1.679,0.345 -1.985,-0.26 -0.171,-0.339 -0.047,-1.152 1.452,-1.905 1.497,-0.753 2.078,-0.261 2.834,-0.125 0.08,-0.598 -0.804,-2.011 -2.817,-1.342 z m -4.976,13.706 c 0.274,0.299 0.869,0.805 1.083,0.495 0.452,-0.656 0.576,-1.222 1.517,-2.07 0.621,-0.562 1.644,-0.939 2.08,-1.066 0.243,-0.998 -1.68,-2.429 -3.884,-0.395 -1.132,1.045 -1.478,2.293 -0.796,3.036 z M 8.077,6.874 C 6.393,10.169 2.61,7.786 2.61,7.786 3.624,8.955 2.686,12.703 1.452,13.499 1.417,11.606 -0.175,11.022 -1.39,11.337 c -1.515,0.394 -0.933,2.532 -0.48,3.432 -1.166,0.074 -3.628,0.247 -5.301,-2.181 -0.442,3.029 -3.153,4.276 -5.992,3.54 3.014,-3.47 -3.541,-7.221 -5.818,-6.134 -1.087,-2.243 2.548,-4.778 3.045,-4.064 -1.924,-2.771 -5.034,-2.158 -6.757,-1.568 -0.058,-1.224 1.272,-3.799 3.823,-3.799 -1.335,-2.023 -4.153,-2.175 -4.996,-1.752 -0.375,-1.943 2.779,-3.676 3.637,-3.826 -2.589,-4.135 -1.707,-9.154 -0.266,-11.152 l 0.967,-1.707 c 2.123,4.243 6.96,2.562 6.154,-1.488 4.568,-0.489 6.845,3.484 7.832,5.906 1.56,-1.744 3.544,-1.944 4.628,-1.699 -1.485,2.778 -0.825,5.649 -0.162,6.668 1.552,-1.503 3.836,-1.822 4.952,-1.454 -1.473,2.043 -1.5,7.093 -1.08,8.857 1.035,-0.692 3.283,-1.4 4.37,1.124 -2.015,0.367 -2.454,6.94 0.911,6.834"
         style="fill:#b3b3b3;fill-opacity:1;fill-rule:nonzero;stroke:none"
         id="path122"
         inkscape:connector-curvature="0" /></g></g></svg>